<?xml version="1.0" standalone="no"?>
<!DOCTYPE svg PUBLIC "-//W3C//DTD SVG 20010904//EN"
 "http://www.w3.org/TR/2001/REC-SVG-20010904/DTD/svg10.dtd">
<svg version="1.0" xmlns="http://www.w3.org/2000/svg"
 width="403.000000pt" height="403.000000pt" viewBox="0 0 403.000000 403.000000"
 preserveAspectRatio="xMidYMid meet">

<g transform="translate(0.000000,403.000000) scale(0.100000,-0.100000)"
fill="#ffffff" stroke="none">
<path d="M1440 2664 c-170 -36 -321 -156 -398 -314 -66 -135 -77 -189 -77
-385 1 -146 4 -181 23 -250 47 -165 126 -279 246 -357 150 -97 396 -120 633
-60 l68 18 3 73 c3 67 1 73 -15 67 -97 -38 -330 -57 -435 -37 -240 47 -368
261 -356 590 6 146 34 247 95 338 119 179 360 240 610 154 48 -17 91 -27 95
-23 3 4 18 33 31 64 29 65 28 67 -48 93 -134 45 -342 58 -475 29z"/>
<path d="M2240 1975 l0 -685 80 0 80 0 0 269 0 268 163 5 c138 5 174 9 242 31
177 58 265 155 296 328 9 53 9 85 0 141 -22 136 -84 223 -196 274 -96 44 -171
54 -427 54 l-238 0 0 -685z m500 534 c69 -15 139 -64 170 -119 22 -39 25 -57
25 -135 0 -109 -25 -170 -88 -216 -65 -47 -126 -61 -294 -66 l-153 -5 0 276 0
276 145 0 c79 0 167 -5 195 -11z"/>
</g>
</svg>
