<?xml version="1.0" encoding="UTF-8" standalone="no"?><!DOCTYPE svg PUBLIC "-//W3C//DTD SVG 1.1//EN" "http://www.w3.org/Graphics/SVG/1.1/DTD/svg11.dtd"><svg width="2363" height="964" viewBox="0 0 2363 964" version="1.1" xmlns="http://www.w3.org/2000/svg" xmlns:xlink="http://www.w3.org/1999/xlink" xml:space="preserve" xmlns:serif="http://www.serif.com/" style="fill-rule:evenodd;clip-rule:evenodd;stroke-linejoin:round;stroke-miterlimit:2;"><g id="Laag-1" serif:id="Laag 1"><path d="M2008.74,946.013c-92.879,-0 -149.946,-104.829 -149.946,-278.663c0,-172.504 55.738,-269.37 149.946,-269.37c90.238,-0 144.646,94.208 144.646,268.045c0,176.484 -55.737,279.988 -144.646,279.988m79.625,-597.138c-128.721,0 -205.679,69.005 -230.9,184.455c0,-264.292 9.954,-512.213 214.309,-512.213c71.412,0 138.429,25.325 186.833,74.742c2.367,-4.2 4.742,-8.396 7.137,-12.584c-49.279,-48.62 -122.487,-79.408 -223.175,-79.408c-269.37,0 -392.112,221.604 -392.112,524.15c-0,114.121 23.892,207.008 71.658,278.663c59.721,92.887 157.913,152.604 283.984,152.604c197.712,-0 343.675,-140.659 343.675,-337.05c-0,-163.221 -96.863,-273.359 -261.409,-273.359" style="fill:#0b478a;fill-rule:nonzero;"/><path d="M362.11,558.297c-70.25,-10.658 -154.15,-61.658 -202.017,-157.392l1.992,533.263l-65.409,-0l0,15.287l331.004,0l0,-15.287l-65.229,-0l-0.341,-375.871Z" style="fill:#0b478a;fill-rule:nonzero;"/><path d="M709.395,22.403l65.75,-0l0,492.437c-49.687,10.904 -100.683,16.496 -154.233,16.496c-51.771,-0 -99.208,-4.588 -138.729,-16.042c-154.133,-44.679 -119.733,-270.679 -119.733,-367.246c-0,-143.496 -90.955,-142.675 -152.596,-142.541l-197.417,0.529l0,16.367l70.854,-0c49.054,-0.184 76.163,21.987 77.504,71.029l0.313,126.346c1.15,36.408 5.571,108.512 66.825,179.116c57.842,66.671 170.142,149.042 392.979,149.042c53.996,-0 104.917,-5.238 154.233,-15.496l0,401.725l-66.833,0l0,16.371l331.004,-0l0,-16.371l-62.475,0l0,-911.763l63.559,0l-0,-16.366l-331.005,-0l0,16.366Z" style="fill:#0b478a;fill-rule:nonzero;"/><path d="M1469.77,6.177c-0.962,0.975 -7.3,0 -7.3,0c-130.579,139.183 -244.158,243.404 -350.8,326.138l10,15.316c46.525,-35.529 94.413,-75.637 145.121,-121.671l-0,708.246l-64.192,0l0,16.034l331.229,-0l0,-16.034l-65.32,0l1.262,-928.029Z" style="fill:#0b478a;fill-rule:nonzero;"/></g></svg>